<svg width="0" height="0" class="hidden">
  <symbol version="1.1" xmlns="http://www.w3.org/2000/svg"  viewBox="0 0 32 32" id="location">
    <title>location</title>
    <path d="M16 0c-5.523 0-10 4.477-10 10 0 10 10 22 10 22s10-12 10-22c0-5.523-4.477-10-10-10zM16 16.125c-3.383 0-6.125-2.742-6.125-6.125s2.742-6.125 6.125-6.125 6.125 2.742 6.125 6.125-2.742 6.125-6.125 6.125zM12.125 10c0-2.14 1.735-3.875 3.875-3.875s3.875 1.735 3.875 3.875c0 2.14-1.735 3.875-3.875 3.875s-3.875-1.735-3.875-3.875z"></path>
  </symbol>
  <symbol version="1.1" xmlns="http://www.w3.org/2000/svg"  viewBox="0 0 32 32" id="envelop">
    <title>envelop</title>
    <path d="M29 4h-26c-1.65 0-3 1.35-3 3v20c0 1.65 1.35 3 3 3h26c1.65 0 3-1.35 3-3v-20c0-1.65-1.35-3-3-3zM12.461 17.199l-8.461 6.59v-15.676l8.461 9.086zM5.512 8h20.976l-10.488 7.875-10.488-7.875zM12.79 17.553l3.21 3.447 3.21-3.447 6.58 8.447h-19.579l6.58-8.447zM19.539 17.199l8.461-9.086v15.676l-8.461-6.59z"></path>
  </symbol>
  <symbol version="1.1" xmlns="http://www.w3.org/2000/svg"  viewBox="0 0 32 32" id="mobile">
    <title>mobile</title>
    <path d="M23 0h-14c-1.65 0-3 1.35-3 3v26c0 1.65 1.35 3 3 3h14c1.65 0 3-1.35 3-3v-26c0-1.65-1.35-3-3-3zM12 1.5h8v1h-8v-1zM16 30c-1.105 0-2-0.895-2-2s0.895-2 2-2 2 0.895 2 2-0.895 2-2 2zM24 24h-16v-20h16v20z"></path>
  </symbol>
  <symbol version="1.0" xmlns="http://www.w3.org/2000/svg" preserveAspectRatio="xMidYMid meet" viewBox="0 0 50.000000 50.000000" id="menu">
    <g transform="translate(0.000000,50.000000) scale(0.100000,-0.100000)" fill="#000000" stroke="none">
      <path d="M35 409 c-16 -25 19 -29 221 -27 178 3 209 5 209 18 0 13 -31 15
-212 18 -147 2 -214 -1 -218 -9z"></path>
      <path d="M35 259 c-16 -25 19 -29 221 -27 178 3 209 5 209 18 0 13 -31 15
-212 18 -147 2 -214 -1 -218 -9z"></path>
      <path d="M35 109 c-16 -25 19 -29 221 -27 178 3 209 5 209 18 0 13 -31 15
-212 18 -147 2 -214 -1 -218 -9z"></path>
    </g>
  </symbol>
  <symbol xmlns="http://www.w3.org/2000/svg" viewBox="0 0 576 512" id="9-1">
    <path d="M160 480c9 0 17.5-3.8 23.6-10.4l88-96c11.9-13 11.1-33.3-2-45.2s-33.3-11.1-45.2 2L192 365.7V64c0-17.7-14.3-32-32-32s-32 14.3-32 32V365.7L95.6 330.4c-11.9-13-32.2-13.9-45.2-2s-13.9 32.2-2 45.2l88 96C142.5 476.2 151 480 160 480zM352 320c0 17.7 14.3 32 32 32h16v64H384c-17.7 0-32 14.3-32 32s14.3 32 32 32h48 48c17.7 0 32-14.3 32-32s-14.3-32-32-32H464V320c0-17.7-14.3-32-32-32H384c-17.7 0-32 14.3-32 32zm93.7-171.1c-4.2 2-8.8 3.1-13.7 3.1c-17.7 0-32-14.3-32-32s14.3-32 32-32s32 14.3 32 32c0 12.8-7.5 23.8-18.3 28.9zm-40.7 54.9l-6.8 9.2c-10.5 14.2-7.5 34.2 6.7 44.8s34.2 7.5 44.8-6.7l48.8-65.8c14-18.9 21.5-41.7 21.5-65.2c0-48.6-39.4-88-88-88s-88 39.4-88 88c0 39.2 25.6 72.4 61.1 83.8z"></path>
  </symbol>
  <symbol xmlns="http://www.w3.org/2000/svg" viewBox="0 0 576 512" id="1-9">
    <path d="M160 32c9 0 17.5 3.8 23.6 10.4l88 96c11.9 13 11.1 33.3-2 45.2s-33.3 11.1-45.2-2L192 146.3V448c0 17.7-14.3 32-32 32s-32-14.3-32-32V146.3L95.6 181.6c-11.9 13-32.2 13.9-45.2 2s-13.9-32.2-2-45.2l88-96C142.5 35.8 151 32 160 32zM352 64c0-17.7 14.3-32 32-32h48c17.7 0 32 14.3 32 32v96h16c17.7 0 32 14.3 32 32s-14.3 32-32 32H432 384c-17.7 0-32-14.3-32-32s14.3-32 32-32h16V96H384c-17.7 0-32-14.3-32-32zm93.7 300.9c10.8-5.1 18.3-16.2 18.3-28.9c0-17.7-14.3-32-32-32s-32 14.3-32 32s14.3 32 32 32c4.9 0 9.6-1.1 13.7-3.1zm-40.7 54.9C369.6 408.4 344 375.2 344 336c0-48.6 39.4-88 88-88s88 39.4 88 88c0 23.5-7.5 46.3-21.5 65.2L449.7 467c-10.5 14.2-30.6 17.2-44.8 6.7s-17.2-30.6-6.7-44.8l6.8-9.2z"></path>
  </symbol>

<symbol xmlns="http://www.w3.org/2000/svg" viewBox="0 0 64.000000 64.000000" id="heart">
<path style="fill:#01ffff; stroke:none;" d="M44 8L45 9L44 8z"/>
<path style="fill:#01a7e5; stroke:none;" d="M4 30L60 30C62.0271 19.0419 56.8935 7.64608 44 8.78935C39.7082 9.16991 36.0411 13.0309 32 13.0309C28.2451 13.0309 24.9397 9.49176 21 9.10494C7.82982 7.81181 1.80028 18.1089 4 30z"/>
<path style="fill:#01ffff; stroke:none;" d="M46 8L47 9L46 8M58 15L59 16L58 15M4 17L5 18L4 17z"/>
<path style="fill:#f5ca4a; stroke:none;" d="M5 30C7.83291 37.3123 23.5102 56.7037 32 56.7037C39.8452 56.7037 55.9209 36.6027 59 30L5 30z"/>
<path style="fill:#fed42d; stroke:none;" d="M55 35L56 36L55 35M54 36L55 37L54 36M53 37L54 38L53 37M52 38L53 39L52 38M51 39L52 40L51 39M50 40L51 41L50 40M49 41L50 42L49 41M48 42L49 43L48 42M47 43L48 44L47 43M46 44L47 45L46 44M45 45L46 46L45 45M44 46L45 47L44 46M43 47L44 48L43 47z"/>
</symbol>

  <symbol version="1.0" xmlns="http://www.w3.org/2000/svg" preserveAspectRatio="xMidYMid meet" viewBox="0 0 30.000000 30.000000" id="close">
    <g transform="translate(0.000000,30.000000) scale(0.100000,-0.100000)" fill="#000000" stroke="none">
      <path d="M50 245 c-11 -14 -7 -22 25 -55 l39 -40 -39 -40 c-37 -38 -38 -41
-22 -57 16 -16 19 -15 57 22 l40 39 40 -39 c38 -37 41 -38 57 -22 16 16 15 19
-22 57 l-39 40 39 40 c37 38 38 41 22 57 -16 16 -19 15 -57 -22 l-40 -39 -38
37 c-43 42 -45 43 -62 22z"></path>
    </g>
  </symbol>
  <symbol version="1.0" xmlns="http://www.w3.org/2000/svg" preserveAspectRatio="xMidYMid meet" viewBox="0 0 64.000000 64.000000" id="gender">
    <g transform="translate(0.000000,64.000000) scale(0.100000,-0.100000)" stroke="none">
      <path d="M425 528 c-3 -8 -4 -25 -3 -38 3 -24 1 -25 -44 -22 -79 6 -138 -43
-138 -113 0 -56 61 -126 81 -94 13 20 11 28 -11 56 -11 14 -20 32 -20 40 0 19
45 63 65 63 27 0 68 -48 62 -73 -3 -12 -2 -38 2 -57 l7 -35 23 35 c16 27 21
47 19 85 l-3 50 35 0 35 0 0 55 0 55 -53 3 c-37 2 -54 -1 -57 -10z"></path>
      <path d="M315 370 c-4 -13 1 -30 14 -46 12 -15 21 -33 21 -41 0 -19 -45 -63
-65 -63 -27 0 -68 48 -62 73 3 12 2 38 -2 57 l-7 35 -23 -35 c-16 -27 -21 -47
-19 -85 l3 -50 -35 0 -35 0 0 -55 0 -55 55 0 55 0 0 35 0 35 47 -3 c104 -7
168 80 123 168 -13 25 -42 50 -59 50 -2 0 -8 -9 -11 -20z"></path>
    </g>
  </symbol>
  <symbol version="1.0" xmlns="http://www.w3.org/2000/svg" preserveAspectRatio="xMidYMid meet" viewBox="0 0 64.000000 64.000000" id="female">
    <g transform="translate(0.000000,64.000000) scale(0.100000,-0.100000)"  stroke="none">
      <path d="M255 556 c-43 -21 -59 -36 -84 -76 -25 -42 -28 -117 -6 -159 16 -33
65 -77 95 -86 29 -9 27 -51 -4 -59 -43 -11 -41 -66 3 -66 10 0 21 -13 26 -32
14 -47 56 -47 70 -1 7 25 15 33 31 33 27 0 41 34 24 55 -7 8 -21 15 -31 15
-27 0 -26 46 1 55 30 9 79 53 95 86 22 41 19 114 -6 158 -41 74 -144 111 -214
77z m138 -96 c37 -41 37 -89 -1 -131 -24 -26 -36 -32 -72 -32 -36 0 -48 6 -72
32 -34 39 -37 87 -7 125 43 54 105 57 152 6z"></path>
    </g>
  </symbol>
  <symbol version="1.0" xmlns="http://www.w3.org/2000/svg" preserveAspectRatio="xMidYMid meet" viewBox="0 0 64.000000 64.000000" id="male">
    <g transform="translate(0.000000,64.000000) scale(0.100000,-0.100000)"  stroke="none">
      <path d="M382 518 c-16 -16 -15 -23 4 -43 16 -15 15 -18 -8 -42 -22 -22 -28
-23 -48 -13 -32 17 -111 15 -146 -3 -86 -44 -117 -149 -71 -237 63 -120 241
-117 304 4 18 35 20 114 3 146 -10 20 -9 26 13 48 24 23 27 24 42 8 36 -36 57
-7 53 76 l-3 63 -65 3 c-42 2 -70 -2 -78 -10z m-51 -187 c48 -49 38 -125 -21
-156 -47 -24 -78 -19 -117 20 -32 32 -35 39 -30 78 12 85 107 118 168 58z"></path>
    </g>
  </symbol>
  <symbol version="1.0" xmlns="http://www.w3.org/2000/svg" preserveAspectRatio="xMidYMid meet" viewBox="0 0 30.000000 30.000000" id="down">
    <g transform="translate(0.000000,30.000000) scale(0.100000,-0.100000)" fill="#000000" stroke="none">
      <path d="M127 274 c-4 -4 -7 -43 -7 -86 0 -77 0 -78 -25 -78 -34 0 -32 -10 15
-55 l40 -39 40 39 c46 45 49 55 15 55 -24 0 -24 2 -27 83 -3 74 -5 82 -23 85
-12 2 -24 0 -28 -4z"></path>
    </g>
  </symbol>
  <symbol version="1.0" xmlns="http://www.w3.org/2000/svg" preserveAspectRatio="xMidYMid meet" viewBox="0 0 30.000000 30.000000" id="up">
    <g transform="translate(0.000000,30.000000) scale(0.100000,-0.100000)" fill="#000000" stroke="none">
      <path d="M107 242 c-44 -45 -45 -52 -12 -52 24 0 24 -2 27 -82 3 -81 4 -83 28
-83 24 0 25 2 28 83 3 80 3 82 27 82 14 0 25 4 25 8 0 9 -72 82 -81 82 -3 0
-22 -17 -42 -38z"></path>
    </g>
  </symbol>
  <symbol xmlns="http://www.w3.org/2000/svg" viewBox="0 0 576 512" id="a-z">
    <path d="M183.6 42.4C177.5 35.8 169 32 160 32s-17.5 3.8-23.6 10.4l-88 96c-11.9 13-11.1 33.3 2 45.2s33.3 11.1 45.2-2L128 146.3V448c0 17.7 14.3 32 32 32s32-14.3 32-32V146.3l32.4 35.4c11.9 13 32.2 13.9 45.2 2s13.9-32.2 2-45.2l-88-96zM320 320c0 17.7 14.3 32 32 32h50.7l-73.4 73.4c-9.2 9.2-11.9 22.9-6.9 34.9s16.6 19.8 29.6 19.8H480c17.7 0 32-14.3 32-32s-14.3-32-32-32H429.3l73.4-73.4c9.2-9.2 11.9-22.9 6.9-34.9s-16.6-19.8-29.6-19.8H352c-17.7 0-32 14.3-32 32zM416 32c-12.1 0-23.2 6.8-28.6 17.7l-64 128-16 32c-7.9 15.8-1.5 35 14.3 42.9s35 1.5 42.9-14.3l7.2-14.3h88.4l7.2 14.3c7.9 15.8 27.1 22.2 42.9 14.3s22.2-27.1 14.3-42.9l-16-32-64-128C439.2 38.8 428.1 32 416 32zM395.8 176L416 135.6 436.2 176H395.8z"></path>
  </symbol>
  <symbol xmlns="http://www.w3.org/2000/svg" viewBox="0 0 576 512" id="z-a">
    <path d="M183.6 469.6C177.5 476.2 169 480 160 480s-17.5-3.8-23.6-10.4l-88-96c-11.9-13-11.1-33.3 2-45.2s33.3-11.1 45.2 2L128 365.7V64c0-17.7 14.3-32 32-32s32 14.3 32 32V365.7l32.4-35.4c11.9-13 32.2-13.9 45.2-2s13.9 32.2 2 45.2l-88 96zM320 64c0-17.7 14.3-32 32-32H480c12.9 0 24.6 7.8 29.6 19.8s2.2 25.7-6.9 34.9L429.3 160H480c17.7 0 32 14.3 32 32s-14.3 32-32 32H352c-12.9 0-24.6-7.8-29.6-19.8s-2.2-25.7 6.9-34.9L402.7 96H352c-17.7 0-32-14.3-32-32zm96 192c12.1 0 23.2 6.8 28.6 17.7l64 128 16 32c7.9 15.8 1.5 35-14.3 42.9s-35 1.5-42.9-14.3L460.2 448H371.8l-7.2 14.3c-7.9 15.8-27.1 22.2-42.9 14.3s-22.2-27.1-14.3-42.9l16-32 64-128c5.4-10.8 16.5-17.7 28.6-17.7zM395.8 400h40.4L416 359.6 395.8 400z"></path>
  </symbol>
</svg>
